<svg xmlns="http://www.w3.org/2000/svg" viewBox="0 0 64 64">
  <rect width="64" height="64" rx="14" fill="#2e6b4f"/>
  <path d="M4 40 L18 22 L26 32 L34 18 L48 36 L60 26 L60 44 L4 44 Z" fill="#e3ede6" opacity="0.35"/>
  <!-- 38 ft fifth wheel -->
  <path d="M3 44 V30 a3 3 0 0 1 3 -3 H36 a2 2 0 0 1 2 2 v1 H44 v4 H38 v10 Z" fill="#ffffff"/>
  <rect x="7" y="31" width="7" height="5" rx="1" fill="#2e6b4f"/><rect x="17" y="31" width="7" height="5" rx="1" fill="#2e6b4f"/><rect x="27" y="31" width="7" height="5" rx="1" fill="#2e6b4f"/>
  <!-- dually truck -->
  <path d="M39 44 V36 h1.5 v2 h9.5 V33 a2 2 0 0 1 2 -2 h5 l4 6 h1 a1.5 1.5 0 0 1 1.5 1.5 V44 Z" fill="#b8c0c4"/>
  <path d="M52 33 h4 l3 4 H52 Z" fill="#2a3338"/>
  <rect x="3" y="40" width="60" height="1.5" fill="#b5472f"/>
  <circle cx="14" cy="46" r="3.2" fill="#23312b"/><circle cx="23" cy="46" r="3.2" fill="#23312b"/>
  <circle cx="44" cy="46.5" r="3.2" fill="#23312b"/><circle cx="49" cy="46.5" r="3.2" fill="#23312b"/><circle cx="59" cy="46" r="3.2" fill="#23312b"/>
</svg>
